<svg xmlns="http://www.w3.org/2000/svg" xmlns:xlink="http://www.w3.org/1999/xlink" width="500" zoomAndPan="magnify" viewBox="0 0 375 374.999991" height="500" preserveAspectRatio="xMidYMid meet" version="1.0"><path fill="#333a8c" d="M 284.695312 189.964844 L 347.535156 127.125 C 375.007812 99.652344 375.007812 54.949219 347.535156 27.476562 C 320.0625 0.00390625 275.359375 0.00390625 247.886719 27.476562 L 185.042969 90.316406 L 122.203125 27.476562 C 96.101562 1.375 53.636719 1.375 27.535156 27.476562 C 1.441406 53.574219 1.441406 96.039062 27.535156 122.144531 L 90.375 184.984375 L 27.535156 247.828125 C 0.0625 275.300781 0.0625 320.003906 27.535156 347.476562 C 55.074219 375.015625 99.648438 375.011719 127.183594 347.476562 L 190.023438 284.632812 L 252.867188 347.476562 C 278.972656 373.574219 321.4375 373.570312 347.535156 347.476562 C 373.628906 321.378906 373.628906 278.910156 347.535156 252.808594 Z M 37.5 112.179688 C 16.898438 91.570312 16.898438 58.042969 37.5 37.441406 C 58.105469 16.835938 91.632812 16.835938 112.238281 37.441406 L 175.078125 100.28125 L 100.339844 175.019531 Z M 117.21875 337.511719 C 95.1875 359.542969 59.527344 359.539062 37.5 337.511719 C 15.523438 315.53125 15.523438 279.769531 37.5 257.789062 L 105.261719 190.03125 C 105.285156 190.007812 105.304688 189.992188 105.328125 189.96875 C 105.347656 189.949219 105.367188 189.925781 105.386719 189.90625 L 189.960938 105.332031 C 189.984375 105.308594 190.007812 105.289062 190.03125 105.269531 C 190.054688 105.246094 190.074219 105.21875 190.09375 105.199219 L 257.851562 37.441406 C 279.832031 15.457031 315.59375 15.464844 337.570312 37.441406 C 359.546875 59.417969 359.546875 95.179688 337.570312 117.160156 Z M 337.570312 337.511719 C 316.96875 358.113281 283.441406 358.113281 262.832031 337.511719 L 199.992188 274.667969 L 274.730469 199.929688 L 337.570312 262.769531 C 358.171875 283.378906 358.171875 316.90625 337.570312 337.511719 Z M 337.570312 337.511719 " fill-opacity="1" fill-rule="nonzero"/><path fill="#333a8c" d="M 207.464844 117.722656 C 204.714844 114.972656 200.25 114.972656 197.5 117.722656 L 117.78125 197.441406 C 115.03125 200.191406 115.03125 204.652344 117.78125 207.40625 L 167.605469 257.230469 C 170.355469 259.980469 174.820312 259.980469 177.570312 257.230469 L 257.289062 177.511719 C 260.039062 174.757812 260.039062 170.296875 257.289062 167.546875 Z M 172.589844 242.28125 L 132.730469 202.421875 L 202.484375 132.667969 L 242.34375 172.527344 Z M 172.589844 242.28125 " fill-opacity="1" fill-rule="nonzero"/><path fill="#333a8c" d="M 266.828125 65.40625 C 266.828125 65.871094 266.78125 66.328125 266.691406 66.78125 C 266.601562 67.234375 266.46875 67.675781 266.289062 68.101562 C 266.113281 68.53125 265.894531 68.9375 265.640625 69.320312 C 265.382812 69.707031 265.089844 70.0625 264.761719 70.390625 C 264.433594 70.714844 264.078125 71.007812 263.695312 71.265625 C 263.308594 71.523438 262.902344 71.738281 262.476562 71.917969 C 262.050781 72.09375 261.609375 72.226562 261.15625 72.316406 C 260.699219 72.40625 260.242188 72.453125 259.78125 72.453125 C 259.316406 72.453125 258.859375 72.40625 258.40625 72.316406 C 257.953125 72.226562 257.511719 72.09375 257.082031 71.917969 C 256.65625 71.738281 256.25 71.523438 255.867188 71.265625 C 255.480469 71.007812 255.125 70.714844 254.796875 70.390625 C 254.46875 70.0625 254.179688 69.707031 253.921875 69.320312 C 253.664062 68.9375 253.449219 68.53125 253.269531 68.101562 C 253.09375 67.675781 252.960938 67.234375 252.871094 66.78125 C 252.777344 66.328125 252.734375 65.871094 252.734375 65.40625 C 252.734375 64.945312 252.777344 64.484375 252.871094 64.03125 C 252.960938 63.578125 253.09375 63.136719 253.269531 62.710938 C 253.449219 62.28125 253.664062 61.875 253.921875 61.492188 C 254.179688 61.105469 254.46875 60.75 254.796875 60.425781 C 255.125 60.097656 255.480469 59.804688 255.867188 59.546875 C 256.25 59.289062 256.65625 59.074219 257.082031 58.898438 C 257.511719 58.71875 257.953125 58.585938 258.40625 58.496094 C 258.859375 58.40625 259.316406 58.359375 259.78125 58.359375 C 260.242188 58.359375 260.699219 58.40625 261.15625 58.496094 C 261.609375 58.585938 262.050781 58.71875 262.476562 58.898438 C 262.902344 59.074219 263.308594 59.289062 263.695312 59.546875 C 264.078125 59.804688 264.433594 60.097656 264.761719 60.425781 C 265.089844 60.75 265.382812 61.105469 265.640625 61.492188 C 265.894531 61.875 266.113281 62.28125 266.289062 62.710938 C 266.46875 63.136719 266.601562 63.578125 266.691406 64.03125 C 266.78125 64.484375 266.828125 64.945312 266.828125 65.40625 Z M 266.828125 65.40625 " fill-opacity="1" fill-rule="nonzero"/><path fill="#333a8c" d="M 246.898438 85.335938 C 246.898438 85.800781 246.855469 86.257812 246.765625 86.710938 C 246.675781 87.164062 246.539062 87.605469 246.363281 88.035156 C 246.1875 88.460938 245.96875 88.867188 245.710938 89.25 C 245.453125 89.636719 245.164062 89.992188 244.835938 90.320312 C 244.507812 90.644531 244.152344 90.9375 243.769531 91.195312 C 243.382812 91.453125 242.976562 91.667969 242.550781 91.847656 C 242.121094 92.023438 241.683594 92.15625 241.226562 92.246094 C 240.773438 92.335938 240.316406 92.382812 239.851562 92.382812 C 239.390625 92.382812 238.933594 92.335938 238.480469 92.246094 C 238.023438 92.15625 237.585938 92.023438 237.15625 91.847656 C 236.730469 91.667969 236.324219 91.453125 235.9375 91.195312 C 235.554688 90.9375 235.199219 90.644531 234.871094 90.320312 C 234.542969 89.992188 234.25 89.636719 233.996094 89.25 C 233.738281 88.867188 233.519531 88.460938 233.34375 88.035156 C 233.167969 87.605469 233.03125 87.164062 232.941406 86.710938 C 232.851562 86.257812 232.808594 85.800781 232.808594 85.335938 C 232.808594 84.875 232.851562 84.414062 232.941406 83.960938 C 233.03125 83.507812 233.167969 83.066406 233.34375 82.640625 C 233.519531 82.210938 233.738281 81.808594 233.996094 81.421875 C 234.25 81.039062 234.542969 80.679688 234.871094 80.355469 C 235.199219 80.027344 235.554688 79.734375 235.9375 79.476562 C 236.324219 79.222656 236.730469 79.003906 237.15625 78.828125 C 237.585938 78.648438 238.023438 78.515625 238.480469 78.425781 C 238.933594 78.335938 239.390625 78.289062 239.851562 78.289062 C 240.316406 78.289062 240.773438 78.335938 241.226562 78.425781 C 241.683594 78.515625 242.121094 78.648438 242.550781 78.828125 C 242.976562 79.003906 243.382812 79.222656 243.769531 79.476562 C 244.152344 79.734375 244.507812 80.027344 244.835938 80.355469 C 245.164062 80.679688 245.453125 81.039062 245.710938 81.421875 C 245.96875 81.808594 246.1875 82.210938 246.363281 82.640625 C 246.539062 83.066406 246.675781 83.507812 246.765625 83.960938 C 246.855469 84.414062 246.898438 84.875 246.898438 85.335938 Z M 246.898438 85.335938 " fill-opacity="1" fill-rule="nonzero"/><path fill="#333a8c" d="M 226.964844 105.265625 C 226.964844 105.726562 226.921875 106.1875 226.832031 106.640625 C 226.738281 107.09375 226.605469 107.535156 226.429688 107.960938 C 226.253906 108.390625 226.035156 108.796875 225.777344 109.179688 C 225.519531 109.566406 225.230469 109.921875 224.902344 110.25 C 224.574219 110.574219 224.21875 110.867188 223.835938 111.125 C 223.449219 111.382812 223.042969 111.597656 222.617188 111.777344 C 222.1875 111.953125 221.75 112.085938 221.292969 112.175781 C 220.839844 112.265625 220.382812 112.3125 219.917969 112.3125 C 219.457031 112.3125 219 112.265625 218.546875 112.175781 C 218.089844 112.085938 217.652344 111.953125 217.222656 111.777344 C 216.796875 111.597656 216.390625 111.382812 216.003906 111.125 C 215.621094 110.867188 215.265625 110.574219 214.9375 110.25 C 214.609375 109.921875 214.316406 109.566406 214.0625 109.179688 C 213.804688 108.796875 213.585938 108.390625 213.410156 107.960938 C 213.234375 107.535156 213.097656 107.09375 213.007812 106.640625 C 212.917969 106.1875 212.875 105.726562 212.875 105.265625 C 212.875 104.804688 212.917969 104.34375 213.007812 103.890625 C 213.097656 103.4375 213.234375 102.996094 213.410156 102.570312 C 213.585938 102.140625 213.804688 101.734375 214.0625 101.351562 C 214.316406 100.964844 214.609375 100.609375 214.9375 100.28125 C 215.265625 99.957031 215.621094 99.664062 216.003906 99.40625 C 216.390625 99.148438 216.796875 98.933594 217.222656 98.753906 C 217.652344 98.578125 218.089844 98.445312 218.546875 98.355469 C 219 98.265625 219.457031 98.21875 219.917969 98.21875 C 220.382812 98.21875 220.839844 98.265625 221.292969 98.355469 C 221.75 98.445312 222.1875 98.578125 222.617188 98.753906 C 223.042969 98.933594 223.449219 99.148438 223.835938 99.40625 C 224.21875 99.664062 224.574219 99.957031 224.902344 100.28125 C 225.230469 100.609375 225.519531 100.964844 225.777344 101.351562 C 226.035156 101.734375 226.253906 102.140625 226.429688 102.570312 C 226.605469 102.996094 226.738281 103.4375 226.832031 103.890625 C 226.921875 104.34375 226.964844 104.804688 226.964844 105.265625 Z M 226.964844 105.265625 " fill-opacity="1" fill-rule="nonzero"/><path fill="#333a8c" d="M 291.738281 90.320312 C 291.738281 90.78125 291.691406 91.238281 291.601562 91.691406 C 291.511719 92.148438 291.378906 92.585938 291.203125 93.015625 C 291.023438 93.441406 290.808594 93.847656 290.550781 94.234375 C 290.292969 94.617188 290 94.972656 289.671875 95.300781 C 289.347656 95.628906 288.992188 95.921875 288.605469 96.175781 C 288.222656 96.433594 287.816406 96.652344 287.386719 96.828125 C 286.960938 97.003906 286.519531 97.140625 286.066406 97.230469 C 285.613281 97.320312 285.152344 97.363281 284.691406 97.363281 C 284.230469 97.363281 283.769531 97.320312 283.316406 97.230469 C 282.863281 97.140625 282.421875 97.003906 281.996094 96.828125 C 281.566406 96.652344 281.160156 96.433594 280.777344 96.175781 C 280.390625 95.921875 280.035156 95.628906 279.707031 95.300781 C 279.382812 94.972656 279.089844 94.617188 278.832031 94.234375 C 278.574219 93.847656 278.359375 93.441406 278.179688 93.015625 C 278.003906 92.585938 277.871094 92.148438 277.78125 91.691406 C 277.691406 91.238281 277.644531 90.78125 277.644531 90.320312 C 277.644531 89.855469 277.691406 89.398438 277.78125 88.945312 C 277.871094 88.488281 278.003906 88.050781 278.179688 87.621094 C 278.359375 87.195312 278.574219 86.789062 278.832031 86.402344 C 279.089844 86.019531 279.382812 85.664062 279.707031 85.335938 C 280.035156 85.007812 280.390625 84.71875 280.777344 84.460938 C 281.160156 84.203125 281.566406 83.984375 281.996094 83.808594 C 282.421875 83.632812 282.863281 83.496094 283.316406 83.40625 C 283.769531 83.316406 284.230469 83.273438 284.691406 83.273438 C 285.152344 83.273438 285.613281 83.316406 286.066406 83.40625 C 286.519531 83.496094 286.960938 83.632812 287.386719 83.808594 C 287.816406 83.984375 288.222656 84.203125 288.605469 84.460938 C 288.992188 84.71875 289.347656 85.007812 289.671875 85.335938 C 290 85.664062 290.292969 86.019531 290.550781 86.402344 C 290.808594 86.789062 291.023438 87.195312 291.203125 87.621094 C 291.378906 88.050781 291.511719 88.488281 291.601562 88.945312 C 291.691406 89.398438 291.738281 89.855469 291.738281 90.320312 Z M 291.738281 90.320312 " fill-opacity="1" fill-rule="nonzero"/><path fill="#333a8c" d="M 271.8125 110.246094 C 271.8125 110.710938 271.765625 111.167969 271.675781 111.621094 C 271.585938 112.078125 271.453125 112.515625 271.273438 112.945312 C 271.097656 113.371094 270.878906 113.777344 270.625 114.164062 C 270.367188 114.546875 270.074219 114.902344 269.746094 115.230469 C 269.417969 115.558594 269.0625 115.851562 268.679688 116.105469 C 268.292969 116.363281 267.886719 116.582031 267.460938 116.757812 C 267.035156 116.933594 266.59375 117.070312 266.140625 117.160156 C 265.683594 117.25 265.226562 117.292969 264.765625 117.292969 C 264.300781 117.292969 263.84375 117.25 263.390625 117.160156 C 262.9375 117.070312 262.496094 116.933594 262.066406 116.757812 C 261.640625 116.582031 261.234375 116.363281 260.851562 116.105469 C 260.464844 115.851562 260.109375 115.558594 259.78125 115.230469 C 259.453125 114.902344 259.164062 114.546875 258.90625 114.164062 C 258.648438 113.777344 258.433594 113.371094 258.253906 112.945312 C 258.078125 112.515625 257.945312 112.078125 257.855469 111.621094 C 257.761719 111.167969 257.71875 110.710938 257.71875 110.246094 C 257.71875 109.785156 257.761719 109.328125 257.855469 108.875 C 257.945312 108.417969 258.078125 107.980469 258.253906 107.550781 C 258.433594 107.125 258.648438 106.71875 258.90625 106.332031 C 259.164062 105.949219 259.453125 105.59375 259.78125 105.265625 C 260.109375 104.9375 260.464844 104.644531 260.851562 104.390625 C 261.234375 104.132812 261.640625 103.914062 262.066406 103.738281 C 262.496094 103.5625 262.9375 103.425781 263.390625 103.335938 C 263.84375 103.246094 264.300781 103.203125 264.765625 103.203125 C 265.226562 103.203125 265.683594 103.246094 266.140625 103.335938 C 266.59375 103.425781 267.035156 103.5625 267.460938 103.738281 C 267.886719 103.914062 268.292969 104.132812 268.679688 104.390625 C 269.0625 104.644531 269.417969 104.9375 269.746094 105.265625 C 270.074219 105.59375 270.367188 105.949219 270.625 106.332031 C 270.878906 106.71875 271.097656 107.125 271.273438 107.550781 C 271.453125 107.980469 271.585938 108.417969 271.675781 108.875 C 271.765625 109.328125 271.8125 109.785156 271.8125 110.246094 Z M 271.8125 110.246094 " fill-opacity="1" fill-rule="nonzero"/><path fill="#333a8c" d="M 251.878906 130.175781 C 251.878906 130.640625 251.832031 131.097656 251.742188 131.550781 C 251.652344 132.003906 251.519531 132.445312 251.339844 132.875 C 251.164062 133.300781 250.945312 133.707031 250.691406 134.089844 C 250.433594 134.476562 250.140625 134.832031 249.8125 135.160156 C 249.484375 135.488281 249.128906 135.777344 248.746094 136.035156 C 248.359375 136.292969 247.953125 136.507812 247.527344 136.6875 C 247.101562 136.863281 246.660156 136.996094 246.207031 137.085938 C 245.75 137.179688 245.292969 137.222656 244.832031 137.222656 C 244.367188 137.222656 243.910156 137.179688 243.457031 137.085938 C 243.003906 136.996094 242.5625 136.863281 242.132812 136.6875 C 241.707031 136.507812 241.300781 136.292969 240.917969 136.035156 C 240.53125 135.777344 240.175781 135.488281 239.847656 135.160156 C 239.519531 134.832031 239.230469 134.476562 238.972656 134.089844 C 238.714844 133.707031 238.496094 133.300781 238.320312 132.875 C 238.144531 132.445312 238.011719 132.003906 237.921875 131.550781 C 237.828125 131.097656 237.785156 130.640625 237.785156 130.175781 C 237.785156 129.714844 237.828125 129.257812 237.921875 128.800781 C 238.011719 128.347656 238.144531 127.90625 238.320312 127.480469 C 238.496094 127.054688 238.714844 126.648438 238.972656 126.261719 C 239.230469 125.878906 239.519531 125.523438 239.847656 125.195312 C 240.175781 124.867188 240.53125 124.574219 240.917969 124.316406 C 241.300781 124.0625 241.707031 123.84375 242.132812 123.667969 C 242.5625 123.488281 243.003906 123.355469 243.457031 123.265625 C 243.910156 123.175781 244.367188 123.128906 244.832031 123.128906 C 245.292969 123.128906 245.75 123.175781 246.207031 123.265625 C 246.660156 123.355469 247.101562 123.488281 247.527344 123.667969 C 247.953125 123.84375 248.359375 124.0625 248.746094 124.316406 C 249.128906 124.574219 249.484375 124.867188 249.8125 125.195312 C 250.140625 125.523438 250.433594 125.878906 250.691406 126.261719 C 250.945312 126.648438 251.164062 127.054688 251.339844 127.480469 C 251.519531 127.90625 251.652344 128.347656 251.742188 128.800781 C 251.832031 129.257812 251.878906 129.714844 251.878906 130.175781 Z M 251.878906 130.175781 " fill-opacity="1" fill-rule="nonzero"/><path fill="#333a8c" d="M 316.652344 115.234375 C 316.652344 115.695312 316.609375 116.15625 316.519531 116.609375 C 316.425781 117.0625 316.292969 117.503906 316.117188 117.929688 C 315.941406 118.359375 315.722656 118.765625 315.464844 119.148438 C 315.207031 119.535156 314.917969 119.890625 314.589844 120.214844 C 314.261719 120.542969 313.90625 120.835938 313.519531 121.09375 C 313.136719 121.351562 312.730469 121.566406 312.304688 121.742188 C 311.875 121.921875 311.433594 122.054688 310.980469 122.144531 C 310.527344 122.234375 310.070312 122.28125 309.605469 122.28125 C 309.144531 122.28125 308.6875 122.234375 308.230469 122.144531 C 307.777344 122.054688 307.335938 121.921875 306.910156 121.742188 C 306.484375 121.566406 306.078125 121.351562 305.691406 121.09375 C 305.308594 120.835938 304.953125 120.542969 304.625 120.214844 C 304.296875 119.890625 304.003906 119.535156 303.746094 119.148438 C 303.492188 118.765625 303.273438 118.359375 303.097656 117.929688 C 302.917969 117.503906 302.785156 117.0625 302.695312 116.609375 C 302.605469 116.15625 302.5625 115.695312 302.5625 115.234375 C 302.5625 114.769531 302.605469 114.3125 302.695312 113.859375 C 302.785156 113.40625 302.917969 112.964844 303.097656 112.539062 C 303.273438 112.109375 303.492188 111.703125 303.746094 111.320312 C 304.003906 110.933594 304.296875 110.578125 304.625 110.25 C 304.953125 109.925781 305.308594 109.632812 305.691406 109.375 C 306.078125 109.117188 306.484375 108.902344 306.910156 108.722656 C 307.335938 108.546875 307.777344 108.414062 308.230469 108.324219 C 308.6875 108.234375 309.144531 108.1875 309.605469 108.1875 C 310.070312 108.1875 310.527344 108.234375 310.980469 108.324219 C 311.433594 108.414062 311.875 108.546875 312.304688 108.722656 C 312.730469 108.902344 313.136719 109.117188 313.519531 109.375 C 313.90625 109.632812 314.261719 109.925781 314.589844 110.25 C 314.917969 110.578125 315.207031 110.933594 315.464844 111.320312 C 315.722656 111.703125 315.941406 112.109375 316.117188 112.539062 C 316.292969 112.964844 316.425781 113.40625 316.519531 113.859375 C 316.609375 114.3125 316.652344 114.769531 316.652344 115.234375 Z M 316.652344 115.234375 " fill-opacity="1" fill-rule="nonzero"/><path fill="#333a8c" d="M 296.726562 135.164062 C 296.726562 135.625 296.679688 136.085938 296.589844 136.539062 C 296.5 136.992188 296.367188 137.433594 296.191406 137.859375 C 296.011719 138.289062 295.796875 138.695312 295.539062 139.078125 C 295.28125 139.460938 294.988281 139.820312 294.664062 140.144531 C 294.335938 140.472656 293.980469 140.765625 293.59375 141.023438 C 293.210938 141.277344 292.804688 141.496094 292.375 141.671875 C 291.949219 141.851562 291.507812 141.984375 291.054688 142.074219 C 290.601562 142.164062 290.144531 142.210938 289.679688 142.210938 C 289.21875 142.210938 288.757812 142.164062 288.304688 142.074219 C 287.851562 141.984375 287.410156 141.851562 286.984375 141.671875 C 286.554688 141.496094 286.148438 141.277344 285.765625 141.023438 C 285.378906 140.765625 285.023438 140.472656 284.699219 140.144531 C 284.371094 139.820312 284.078125 139.460938 283.820312 139.078125 C 283.5625 138.695312 283.347656 138.289062 283.171875 137.859375 C 282.992188 137.433594 282.859375 136.992188 282.769531 136.539062 C 282.679688 136.085938 282.632812 135.625 282.632812 135.164062 C 282.632812 134.699219 282.679688 134.242188 282.769531 133.789062 C 282.859375 133.335938 282.992188 132.894531 283.171875 132.46875 C 283.347656 132.039062 283.5625 131.632812 283.820312 131.25 C 284.078125 130.863281 284.371094 130.507812 284.699219 130.179688 C 285.023438 129.855469 285.378906 129.5625 285.765625 129.304688 C 286.148438 129.046875 286.554688 128.832031 286.984375 128.652344 C 287.410156 128.476562 287.851562 128.34375 288.304688 128.253906 C 288.757812 128.164062 289.21875 128.117188 289.679688 128.117188 C 290.144531 128.117188 290.601562 128.164062 291.054688 128.253906 C 291.507812 128.34375 291.949219 128.476562 292.375 128.652344 C 292.804688 128.832031 293.210938 129.046875 293.59375 129.304688 C 293.980469 129.5625 294.335938 129.855469 294.664062 130.179688 C 294.988281 130.507812 295.28125 130.863281 295.539062 131.25 C 295.796875 131.632812 296.011719 132.039062 296.191406 132.46875 C 296.367188 132.894531 296.5 133.335938 296.589844 133.789062 C 296.679688 134.242188 296.726562 134.699219 296.726562 135.164062 Z M 296.726562 135.164062 " fill-opacity="1" fill-rule="nonzero"/><path fill="#333a8c" d="M 276.792969 155.09375 C 276.792969 155.554688 276.746094 156.011719 276.65625 156.46875 C 276.566406 156.921875 276.433594 157.359375 276.257812 157.789062 C 276.078125 158.214844 275.863281 158.621094 275.605469 159.007812 C 275.347656 159.390625 275.054688 159.746094 274.730469 160.074219 C 274.402344 160.402344 274.046875 160.695312 273.660156 160.949219 C 273.277344 161.207031 272.871094 161.425781 272.441406 161.601562 C 272.015625 161.777344 271.574219 161.914062 271.121094 162.003906 C 270.667969 162.09375 270.207031 162.136719 269.746094 162.136719 C 269.285156 162.136719 268.824219 162.09375 268.371094 162.003906 C 267.917969 161.914062 267.476562 161.777344 267.050781 161.601562 C 266.621094 161.425781 266.214844 161.207031 265.832031 160.949219 C 265.445312 160.695312 265.089844 160.402344 264.765625 160.074219 C 264.4375 159.746094 264.144531 159.390625 263.886719 159.007812 C 263.628906 158.621094 263.414062 158.214844 263.238281 157.789062 C 263.058594 157.359375 262.925781 156.921875 262.835938 156.46875 C 262.746094 156.011719 262.699219 155.554688 262.699219 155.09375 C 262.699219 154.628906 262.746094 154.171875 262.835938 153.71875 C 262.925781 153.265625 263.058594 152.824219 263.238281 152.394531 C 263.414062 151.96875 263.628906 151.5625 263.886719 151.175781 C 264.144531 150.792969 264.4375 150.4375 264.765625 150.109375 C 265.089844 149.78125 265.445312 149.492188 265.832031 149.234375 C 266.214844 148.976562 266.621094 148.757812 267.050781 148.582031 C 267.476562 148.40625 267.917969 148.273438 268.371094 148.179688 C 268.824219 148.089844 269.285156 148.046875 269.746094 148.046875 C 270.207031 148.046875 270.667969 148.089844 271.121094 148.179688 C 271.574219 148.273438 272.015625 148.40625 272.441406 148.582031 C 272.871094 148.757812 273.277344 148.976562 273.660156 149.234375 C 274.046875 149.492188 274.402344 149.78125 274.730469 150.109375 C 275.054688 150.4375 275.347656 150.792969 275.605469 151.175781 C 275.863281 151.5625 276.078125 151.96875 276.257812 152.394531 C 276.433594 152.824219 276.566406 153.265625 276.65625 153.71875 C 276.746094 154.171875 276.792969 154.628906 276.792969 155.09375 Z M 276.792969 155.09375 " fill-opacity="1" fill-rule="nonzero"/><path fill="#333a8c" d="M 107.390625 224.84375 C 107.390625 225.304688 107.34375 225.765625 107.253906 226.21875 C 107.164062 226.671875 107.03125 227.113281 106.851562 227.539062 C 106.675781 227.964844 106.457031 228.371094 106.203125 228.757812 C 105.945312 229.140625 105.652344 229.5 105.324219 229.824219 C 105 230.152344 104.640625 230.445312 104.257812 230.703125 C 103.875 230.957031 103.46875 231.175781 103.039062 231.351562 C 102.613281 231.53125 102.171875 231.664062 101.71875 231.753906 C 101.265625 231.84375 100.804688 231.890625 100.34375 231.890625 C 99.878906 231.890625 99.421875 231.84375 98.96875 231.753906 C 98.515625 231.664062 98.074219 231.53125 97.648438 231.351562 C 97.21875 231.175781 96.8125 230.957031 96.429688 230.703125 C 96.042969 230.445312 95.6875 230.152344 95.359375 229.824219 C 95.035156 229.5 94.742188 229.140625 94.484375 228.757812 C 94.226562 228.371094 94.011719 227.964844 93.832031 227.539062 C 93.65625 227.113281 93.523438 226.671875 93.433594 226.21875 C 93.34375 225.765625 93.296875 225.304688 93.296875 224.84375 C 93.296875 224.378906 93.34375 223.921875 93.433594 223.46875 C 93.523438 223.015625 93.65625 222.574219 93.832031 222.144531 C 94.011719 221.71875 94.226562 221.3125 94.484375 220.929688 C 94.742188 220.542969 95.035156 220.1875 95.359375 219.859375 C 95.6875 219.535156 96.042969 219.242188 96.429688 218.984375 C 96.8125 218.726562 97.21875 218.511719 97.648438 218.332031 C 98.074219 218.15625 98.515625 218.023438 98.96875 217.933594 C 99.421875 217.839844 99.878906 217.796875 100.34375 217.796875 C 100.804688 217.796875 101.265625 217.839844 101.71875 217.933594 C 102.171875 218.023438 102.613281 218.15625 103.039062 218.332031 C 103.46875 218.511719 103.875 218.726562 104.257812 218.984375 C 104.640625 219.242188 105 219.535156 105.324219 219.859375 C 105.652344 220.1875 105.945312 220.542969 106.203125 220.929688 C 106.457031 221.3125 106.675781 221.71875 106.851562 222.144531 C 107.03125 222.574219 107.164062 223.015625 107.253906 223.46875 C 107.34375 223.921875 107.390625 224.378906 107.390625 224.84375 Z M 107.390625 224.84375 " fill-opacity="1" fill-rule="nonzero"/><path fill="#333a8c" d="M 87.464844 244.773438 C 87.464844 245.234375 87.417969 245.691406 87.328125 246.148438 C 87.238281 246.601562 87.105469 247.042969 86.925781 247.46875 C 86.75 247.894531 86.53125 248.300781 86.277344 248.6875 C 86.019531 249.070312 85.726562 249.425781 85.398438 249.753906 C 85.074219 250.082031 84.714844 250.375 84.332031 250.632812 C 83.945312 250.886719 83.542969 251.105469 83.113281 251.28125 C 82.6875 251.460938 82.246094 251.59375 81.792969 251.683594 C 81.339844 251.773438 80.878906 251.820312 80.417969 251.820312 C 79.953125 251.820312 79.496094 251.773438 79.042969 251.683594 C 78.589844 251.59375 78.148438 251.460938 77.71875 251.28125 C 77.292969 251.105469 76.886719 250.886719 76.503906 250.632812 C 76.117188 250.375 75.761719 250.082031 75.433594 249.753906 C 75.109375 249.425781 74.816406 249.070312 74.558594 248.6875 C 74.300781 248.300781 74.085938 247.894531 73.90625 247.46875 C 73.730469 247.042969 73.597656 246.601562 73.507812 246.148438 C 73.417969 245.691406 73.371094 245.234375 73.371094 244.773438 C 73.371094 244.308594 73.417969 243.851562 73.507812 243.398438 C 73.597656 242.945312 73.730469 242.503906 73.90625 242.074219 C 74.085938 241.648438 74.300781 241.242188 74.558594 240.859375 C 74.816406 240.472656 75.109375 240.117188 75.433594 239.789062 C 75.761719 239.460938 76.117188 239.171875 76.503906 238.914062 C 76.886719 238.65625 77.292969 238.441406 77.71875 238.261719 C 78.148438 238.085938 78.589844 237.953125 79.042969 237.863281 C 79.496094 237.769531 79.953125 237.726562 80.417969 237.726562 C 80.878906 237.726562 81.339844 237.769531 81.792969 237.863281 C 82.246094 237.953125 82.6875 238.085938 83.113281 238.261719 C 83.542969 238.441406 83.945312 238.65625 84.332031 238.914062 C 84.714844 239.171875 85.074219 239.460938 85.398438 239.789062 C 85.726562 240.117188 86.019531 240.472656 86.277344 240.859375 C 86.53125 241.242188 86.75 241.648438 86.925781 242.074219 C 87.105469 242.503906 87.238281 242.945312 87.328125 243.398438 C 87.417969 243.851562 87.464844 244.308594 87.464844 244.773438 Z M 87.464844 244.773438 " fill-opacity="1" fill-rule="nonzero"/><path fill="#333a8c" d="M 67.527344 264.703125 C 67.527344 265.164062 67.484375 265.621094 67.394531 266.074219 C 67.304688 266.53125 67.167969 266.96875 66.992188 267.398438 C 66.816406 267.824219 66.597656 268.230469 66.339844 268.617188 C 66.085938 269 65.792969 269.355469 65.464844 269.683594 C 65.136719 270.011719 64.78125 270.304688 64.398438 270.558594 C 64.011719 270.816406 63.605469 271.035156 63.179688 271.210938 C 62.75 271.386719 62.3125 271.523438 61.855469 271.613281 C 61.402344 271.703125 60.945312 271.746094 60.484375 271.746094 C 60.019531 271.746094 59.5625 271.703125 59.109375 271.613281 C 58.652344 271.523438 58.214844 271.386719 57.785156 271.210938 C 57.359375 271.035156 56.953125 270.816406 56.566406 270.558594 C 56.183594 270.304688 55.828125 270.011719 55.5 269.683594 C 55.171875 269.355469 54.882812 269 54.625 268.617188 C 54.367188 268.230469 54.148438 267.824219 53.972656 267.398438 C 53.796875 266.96875 53.660156 266.53125 53.570312 266.074219 C 53.480469 265.621094 53.4375 265.164062 53.4375 264.703125 C 53.4375 264.238281 53.480469 263.78125 53.570312 263.328125 C 53.660156 262.871094 53.796875 262.433594 53.972656 262.003906 C 54.148438 261.578125 54.367188 261.171875 54.625 260.785156 C 54.882812 260.402344 55.171875 260.046875 55.5 259.71875 C 55.828125 259.390625 56.183594 259.097656 56.566406 258.84375 C 56.953125 258.585938 57.359375 258.367188 57.785156 258.191406 C 58.214844 258.015625 58.652344 257.878906 59.109375 257.789062 C 59.5625 257.699219 60.019531 257.65625 60.484375 257.65625 C 60.945312 257.65625 61.402344 257.699219 61.855469 257.789062 C 62.3125 257.878906 62.75 258.015625 63.179688 258.191406 C 63.605469 258.367188 64.011719 258.585938 64.398438 258.84375 C 64.78125 259.097656 65.136719 259.390625 65.464844 259.71875 C 65.792969 260.046875 66.085938 260.402344 66.339844 260.785156 C 66.597656 261.171875 66.816406 261.578125 66.992188 262.003906 C 67.167969 262.433594 67.304688 262.871094 67.394531 263.328125 C 67.484375 263.78125 67.527344 264.238281 67.527344 264.703125 Z M 67.527344 264.703125 " fill-opacity="1" fill-rule="nonzero"/><path fill="#333a8c" d="M 132.300781 249.753906 C 132.300781 250.214844 132.257812 250.675781 132.164062 251.128906 C 132.074219 251.582031 131.941406 252.023438 131.765625 252.449219 C 131.585938 252.878906 131.371094 253.285156 131.113281 253.667969 C 130.855469 254.054688 130.566406 254.410156 130.238281 254.738281 C 129.910156 255.0625 129.554688 255.355469 129.167969 255.613281 C 128.785156 255.871094 128.378906 256.085938 127.953125 256.265625 C 127.523438 256.441406 127.082031 256.574219 126.628906 256.664062 C 126.175781 256.753906 125.71875 256.800781 125.253906 256.800781 C 124.792969 256.800781 124.335938 256.753906 123.878906 256.664062 C 123.425781 256.574219 122.984375 256.441406 122.558594 256.265625 C 122.132812 256.085938 121.726562 255.871094 121.339844 255.613281 C 120.957031 255.355469 120.601562 255.0625 120.273438 254.738281 C 119.945312 254.410156 119.652344 254.054688 119.394531 253.667969 C 119.140625 253.285156 118.921875 252.878906 118.746094 252.449219 C 118.566406 252.023438 118.433594 251.582031 118.34375 251.128906 C 118.253906 250.675781 118.207031 250.214844 118.207031 249.753906 C 118.207031 249.292969 118.253906 248.832031 118.34375 248.378906 C 118.433594 247.925781 118.566406 247.484375 118.746094 247.058594 C 118.921875 246.628906 119.140625 246.222656 119.394531 245.839844 C 119.652344 245.453125 119.945312 245.097656 120.273438 244.773438 C 120.601562 244.445312 120.957031 244.152344 121.339844 243.894531 C 121.726562 243.636719 122.132812 243.421875 122.558594 243.246094 C 122.984375 243.066406 123.425781 242.933594 123.878906 242.84375 C 124.335938 242.753906 124.792969 242.707031 125.253906 242.707031 C 125.71875 242.707031 126.175781 242.753906 126.628906 242.84375 C 127.082031 242.933594 127.523438 243.066406 127.953125 243.246094 C 128.378906 243.421875 128.785156 243.636719 129.167969 243.894531 C 129.554688 244.152344 129.910156 244.445312 130.238281 244.773438 C 130.566406 245.097656 130.855469 245.453125 131.113281 245.839844 C 131.371094 246.222656 131.585938 246.628906 131.765625 247.058594 C 131.941406 247.484375 132.074219 247.925781 132.164062 248.378906 C 132.257812 248.832031 132.300781 249.292969 132.300781 249.753906 Z M 132.300781 249.753906 " fill-opacity="1" fill-rule="nonzero"/><path fill="#333a8c" d="M 112.375 269.683594 C 112.375 270.144531 112.328125 270.605469 112.238281 271.058594 C 112.148438 271.511719 112.015625 271.953125 111.839844 272.378906 C 111.660156 272.808594 111.445312 273.214844 111.1875 273.597656 C 110.929688 273.984375 110.636719 274.339844 110.3125 274.667969 C 109.984375 274.992188 109.628906 275.285156 109.242188 275.542969 C 108.859375 275.800781 108.453125 276.015625 108.023438 276.195312 C 107.597656 276.371094 107.15625 276.503906 106.703125 276.59375 C 106.25 276.683594 105.792969 276.730469 105.328125 276.730469 C 104.867188 276.730469 104.40625 276.683594 103.953125 276.59375 C 103.5 276.503906 103.058594 276.371094 102.632812 276.195312 C 102.203125 276.015625 101.796875 275.800781 101.414062 275.542969 C 101.027344 275.285156 100.671875 274.992188 100.347656 274.667969 C 100.019531 274.339844 99.726562 273.984375 99.46875 273.597656 C 99.210938 273.214844 98.996094 272.808594 98.820312 272.378906 C 98.640625 271.953125 98.507812 271.511719 98.417969 271.058594 C 98.328125 270.605469 98.28125 270.144531 98.28125 269.683594 C 98.28125 269.222656 98.328125 268.761719 98.417969 268.308594 C 98.507812 267.855469 98.640625 267.414062 98.820312 266.988281 C 98.996094 266.558594 99.210938 266.152344 99.46875 265.769531 C 99.726562 265.382812 100.019531 265.027344 100.347656 264.699219 C 100.671875 264.375 101.027344 264.082031 101.414062 263.824219 C 101.796875 263.566406 102.203125 263.351562 102.632812 263.171875 C 103.058594 262.996094 103.5 262.863281 103.953125 262.773438 C 104.40625 262.683594 104.867188 262.636719 105.328125 262.636719 C 105.792969 262.636719 106.25 262.683594 106.703125 262.773438 C 107.15625 262.863281 107.597656 262.996094 108.023438 263.171875 C 108.453125 263.351562 108.859375 263.566406 109.242188 263.824219 C 109.628906 264.082031 109.984375 264.375 110.3125 264.699219 C 110.636719 265.027344 110.929688 265.382812 111.1875 265.769531 C 111.445312 266.152344 111.660156 266.558594 111.839844 266.988281 C 112.015625 267.414062 112.148438 267.855469 112.238281 268.308594 C 112.328125 268.761719 112.375 269.222656 112.375 269.683594 Z M 112.375 269.683594 " fill-opacity="1" fill-rule="nonzero"/><path fill="#333a8c" d="M 92.441406 289.613281 C 92.441406 290.074219 92.394531 290.535156 92.304688 290.988281 C 92.214844 291.441406 92.082031 291.882812 91.90625 292.308594 C 91.726562 292.738281 91.511719 293.144531 91.253906 293.527344 C 90.996094 293.914062 90.703125 294.269531 90.378906 294.59375 C 90.050781 294.921875 89.695312 295.214844 89.308594 295.472656 C 88.925781 295.730469 88.519531 295.945312 88.089844 296.121094 C 87.664062 296.300781 87.222656 296.433594 86.769531 296.523438 C 86.316406 296.613281 85.855469 296.660156 85.394531 296.660156 C 84.933594 296.660156 84.472656 296.613281 84.019531 296.523438 C 83.566406 296.433594 83.125 296.300781 82.699219 296.121094 C 82.269531 295.945312 81.863281 295.730469 81.480469 295.472656 C 81.09375 295.214844 80.738281 294.921875 80.414062 294.59375 C 80.085938 294.269531 79.792969 293.914062 79.535156 293.527344 C 79.277344 293.144531 79.0625 292.738281 78.882812 292.308594 C 78.707031 291.882812 78.574219 291.441406 78.484375 290.988281 C 78.394531 290.535156 78.347656 290.074219 78.347656 289.613281 C 78.347656 289.152344 78.394531 288.691406 78.484375 288.238281 C 78.574219 287.785156 78.707031 287.34375 78.882812 286.917969 C 79.0625 286.488281 79.277344 286.082031 79.535156 285.699219 C 79.792969 285.3125 80.085938 284.957031 80.414062 284.628906 C 80.738281 284.304688 81.09375 284.011719 81.480469 283.753906 C 81.863281 283.496094 82.269531 283.28125 82.699219 283.101562 C 83.125 282.925781 83.566406 282.792969 84.019531 282.703125 C 84.472656 282.613281 84.933594 282.566406 85.394531 282.566406 C 85.855469 282.566406 86.316406 282.613281 86.769531 282.703125 C 87.222656 282.792969 87.664062 282.925781 88.089844 283.101562 C 88.519531 283.28125 88.925781 283.496094 89.308594 283.753906 C 89.695312 284.011719 90.050781 284.304688 90.378906 284.628906 C 90.703125 284.957031 90.996094 285.3125 91.253906 285.699219 C 91.511719 286.082031 91.726562 286.488281 91.90625 286.917969 C 92.082031 287.34375 92.214844 287.785156 92.304688 288.238281 C 92.394531 288.691406 92.441406 289.152344 92.441406 289.613281 Z M 92.441406 289.613281 " fill-opacity="1" fill-rule="nonzero"/><path fill="#333a8c" d="M 157.214844 274.667969 C 157.214844 275.132812 157.171875 275.589844 157.082031 276.042969 C 156.992188 276.496094 156.855469 276.9375 156.679688 277.367188 C 156.503906 277.792969 156.285156 278.199219 156.027344 278.585938 C 155.773438 278.96875 155.480469 279.324219 155.152344 279.652344 C 154.824219 279.980469 154.46875 280.269531 154.085938 280.527344 C 153.699219 280.785156 153.292969 281.003906 152.867188 281.179688 C 152.441406 281.355469 152 281.488281 151.546875 281.582031 C 151.089844 281.671875 150.632812 281.714844 150.171875 281.714844 C 149.707031 281.714844 149.25 281.671875 148.796875 281.582031 C 148.34375 281.488281 147.902344 281.355469 147.472656 281.179688 C 147.046875 281.003906 146.640625 280.785156 146.253906 280.527344 C 145.871094 280.269531 145.515625 279.980469 145.1875 279.652344 C 144.859375 279.324219 144.570312 278.96875 144.3125 278.585938 C 144.054688 278.199219 143.835938 277.792969 143.660156 277.367188 C 143.484375 276.9375 143.351562 276.496094 143.257812 276.042969 C 143.167969 275.589844 143.125 275.132812 143.125 274.667969 C 143.125 274.207031 143.167969 273.75 143.257812 273.292969 C 143.351562 272.839844 143.484375 272.402344 143.660156 271.972656 C 143.835938 271.546875 144.054688 271.140625 144.3125 270.753906 C 144.570312 270.371094 144.859375 270.015625 145.1875 269.6875 C 145.515625 269.359375 145.871094 269.066406 146.253906 268.8125 C 146.640625 268.554688 147.046875 268.335938 147.472656 268.160156 C 147.902344 267.984375 148.34375 267.847656 148.796875 267.757812 C 149.25 267.667969 149.707031 267.625 150.171875 267.625 C 150.632812 267.625 151.089844 267.667969 151.546875 267.757812 C 152 267.847656 152.441406 267.984375 152.867188 268.160156 C 153.292969 268.335938 153.699219 268.554688 154.085938 268.8125 C 154.46875 269.066406 154.824219 269.359375 155.152344 269.6875 C 155.480469 270.015625 155.773438 270.371094 156.027344 270.753906 C 156.285156 271.140625 156.503906 271.546875 156.679688 271.972656 C 156.855469 272.402344 156.992188 272.839844 157.082031 273.292969 C 157.171875 273.75 157.214844 274.207031 157.214844 274.667969 Z M 157.214844 274.667969 " fill-opacity="1" fill-rule="nonzero"/><path fill="#333a8c" d="M 137.289062 294.597656 C 137.289062 295.0625 137.246094 295.519531 137.15625 295.972656 C 137.0625 296.425781 136.929688 296.867188 136.753906 297.296875 C 136.578125 297.722656 136.359375 298.128906 136.101562 298.511719 C 135.84375 298.898438 135.554688 299.253906 135.226562 299.582031 C 134.898438 299.910156 134.542969 300.199219 134.160156 300.457031 C 133.773438 300.714844 133.367188 300.933594 132.941406 301.109375 C 132.511719 301.285156 132.070312 301.417969 131.617188 301.511719 C 131.164062 301.601562 130.707031 301.644531 130.242188 301.644531 C 129.78125 301.644531 129.324219 301.601562 128.867188 301.511719 C 128.414062 301.417969 127.976562 301.285156 127.546875 301.109375 C 127.121094 300.933594 126.714844 300.714844 126.328125 300.457031 C 125.945312 300.199219 125.589844 299.910156 125.261719 299.582031 C 124.933594 299.253906 124.640625 298.898438 124.386719 298.511719 C 124.128906 298.128906 123.910156 297.722656 123.734375 297.296875 C 123.558594 296.867188 123.421875 296.425781 123.332031 295.972656 C 123.242188 295.519531 123.199219 295.0625 123.199219 294.597656 C 123.199219 294.136719 123.242188 293.679688 123.332031 293.222656 C 123.421875 292.769531 123.558594 292.328125 123.734375 291.902344 C 123.910156 291.476562 124.128906 291.070312 124.386719 290.683594 C 124.640625 290.300781 124.933594 289.945312 125.261719 289.617188 C 125.589844 289.289062 125.945312 288.996094 126.328125 288.742188 C 126.714844 288.484375 127.121094 288.265625 127.546875 288.089844 C 127.976562 287.910156 128.414062 287.777344 128.867188 287.6875 C 129.324219 287.597656 129.78125 287.554688 130.242188 287.554688 C 130.707031 287.554688 131.164062 287.597656 131.617188 287.6875 C 132.070312 287.777344 132.511719 287.910156 132.941406 288.089844 C 133.367188 288.265625 133.773438 288.484375 134.160156 288.742188 C 134.542969 288.996094 134.898438 289.289062 135.226562 289.617188 C 135.554688 289.945312 135.84375 290.300781 136.101562 290.683594 C 136.359375 291.070312 136.578125 291.476562 136.753906 291.902344 C 136.929688 292.328125 137.0625 292.769531 137.15625 293.222656 C 137.246094 293.679688 137.289062 294.136719 137.289062 294.597656 Z M 137.289062 294.597656 " fill-opacity="1" fill-rule="nonzero"/><path fill="#333a8c" d="M 117.355469 314.527344 C 117.355469 314.992188 117.3125 315.449219 117.222656 315.902344 C 117.128906 316.355469 116.996094 316.796875 116.820312 317.226562 C 116.644531 317.652344 116.425781 318.058594 116.167969 318.441406 C 115.910156 318.828125 115.621094 319.183594 115.292969 319.511719 C 114.964844 319.839844 114.609375 320.128906 114.226562 320.386719 C 113.839844 320.644531 113.433594 320.863281 113.007812 321.039062 C 112.578125 321.214844 112.136719 321.347656 111.683594 321.4375 C 111.230469 321.53125 110.773438 321.574219 110.308594 321.574219 C 109.847656 321.574219 109.390625 321.53125 108.933594 321.4375 C 108.480469 321.347656 108.039062 321.214844 107.613281 321.039062 C 107.1875 320.863281 106.78125 320.644531 106.394531 320.386719 C 106.011719 320.128906 105.65625 319.839844 105.328125 319.511719 C 105 319.183594 104.707031 318.828125 104.453125 318.441406 C 104.195312 318.058594 103.976562 317.652344 103.800781 317.226562 C 103.625 316.796875 103.488281 316.355469 103.398438 315.902344 C 103.308594 315.449219 103.265625 314.992188 103.265625 314.527344 C 103.265625 314.066406 103.308594 313.609375 103.398438 313.152344 C 103.488281 312.699219 103.625 312.257812 103.800781 311.832031 C 103.976562 311.40625 104.195312 311 104.453125 310.613281 C 104.707031 310.230469 105 309.875 105.328125 309.546875 C 105.65625 309.21875 106.011719 308.925781 106.394531 308.667969 C 106.78125 308.414062 107.1875 308.195312 107.613281 308.019531 C 108.039062 307.839844 108.480469 307.707031 108.933594 307.617188 C 109.390625 307.527344 109.847656 307.480469 110.308594 307.480469 C 110.773438 307.480469 111.230469 307.527344 111.683594 307.617188 C 112.136719 307.707031 112.578125 307.839844 113.007812 308.019531 C 113.433594 308.195312 113.839844 308.414062 114.226562 308.667969 C 114.609375 308.925781 114.964844 309.21875 115.292969 309.546875 C 115.621094 309.875 115.910156 310.230469 116.167969 310.613281 C 116.425781 311 116.644531 311.40625 116.820312 311.832031 C 116.996094 312.257812 117.128906 312.699219 117.222656 313.152344 C 117.3125 313.609375 117.355469 314.066406 117.355469 314.527344 Z M 117.355469 314.527344 " fill-opacity="1" fill-rule="nonzero"/></svg>