<svg xmlns="http://www.w3.org/2000/svg" xmlns:xlink="http://www.w3.org/1999/xlink" width="500" zoomAndPan="magnify" viewBox="0 0 375 374.999991" height="500" preserveAspectRatio="xMidYMid meet" version="1.0"><path fill="#333a8c" d="M 193.027344 316.171875 L 294.441406 284.511719 C 286.929688 270.757812 278.757812 254.757812 274.101562 241.734375 C 271.152344 233.480469 269.964844 225.832031 268.601562 217.722656 C 257.394531 232.785156 245.757812 243.40625 237.03125 246.050781 C 232.46875 247.417969 226.578125 247.371094 220.96875 246.675781 C 222.175781 249.136719 223.296875 251.6875 224.371094 254.394531 C 225.492188 257.210938 224.125 260.410156 221.285156 261.53125 C 218.464844 262.652344 215.269531 261.285156 214.148438 258.445312 C 204.503906 234.148438 186.515625 217.25 163.671875 211.589844 C 148.125 207.722656 131.125 209.46875 117.136719 217.296875 C 115.992188 217.921875 114.722656 218.125 113.539062 217.921875 C 111.011719 220.605469 106.539062 220.117188 104.699219 216.824219 C 89.867188 190.203125 79.867188 172.410156 72.015625 161.691406 C 65.390625 152.65625 60.917969 149.277344 56.464844 149.949219 C 56.355469 149.949219 56.21875 149.972656 56.109375 149.972656 C 44.136719 152.632812 40.988281 160.042969 42.414062 169.324219 C 45.058594 186.421875 60.71875 209.714844 71.746094 226.105469 C 76.109375 232.59375 80.492188 239.058594 82.195312 242.617188 C 86.132812 249.933594 93.113281 256.21875 101.746094 261.617188 C 111.28125 267.566406 122.261719 272.152344 133.917969 276.117188 C 167.855469 287.640625 179.332031 291.53125 192.199219 316.433594 Z M 305.207031 281.160156 C 320.269531 276.597656 336.402344 285.121094 341.097656 300.15625 C 345.816406 315.304688 337.269531 331.570312 322.144531 336.289062 L 210.210938 371.214844 C 195.0625 375.9375 178.796875 367.414062 174.078125 352.289062 C 170.628906 341.238281 174.234375 329.398438 182.648438 321.996094 C 171.371094 300.253906 160.746094 296.875 129.648438 286.335938 C 108.441406 279.105469 82.550781 267.203125 72.210938 247.363281 C 70.394531 243.875 66.84375 238.59375 62.589844 232.261719 C 51.003906 215.03125 34.554688 190.558594 31.539062 171.046875 C 29.210938 156.035156 33.929688 144.058594 52.011719 139.632812 L 49.273438 52.953125 C 48.714844 34.964844 66.324219 21.878906 83.300781 27.515625 C 87.957031 -0.960938 129.726562 0.125 134.605469 25.792969 C 147.289062 13.78125 168.992188 22.84375 172.664062 40.515625 L 173.382812 43.917969 C 180.320312 35.101562 190.992188 33.246094 200.1875 39.914062 C 205.039062 43.425781 209.46875 49.378906 212.710938 57.746094 C 215.980469 56.085938 219.382812 54.707031 222.871094 53.609375 C 239.222656 48.414062 257.574219 49.488281 274.125 58.148438 C 306.480469 75.0625 311.015625 109 303.882812 141.890625 C 300.28125 158.449219 293.660156 175.246094 285.738281 190.375 C 283.078125 195.433594 280.25 200.3125 277.371094 204.921875 C 278.394531 209.53125 279.089844 213.714844 279.785156 217.789062 C 280.945312 224.65625 282.042969 231.191406 284.503906 238.03125 C 289.210938 251.183594 297.488281 267.179688 305.207031 281.160156 Z M 307.9375 291.855469 L 196.632812 326.597656 C 191.804688 328.28125 188.378906 330.625 185.875 335.414062 C 178.496094 349.488281 191.890625 365.375 206.925781 360.695312 L 318.863281 325.746094 C 333.8125 321.074219 335.933594 300.378906 321.839844 292.992188 C 317.875 290.90625 313.132812 290.308594 308.546875 291.671875 C 308.339844 291.742188 308.136719 291.816406 307.9375 291.855469 Z M 93.980469 34.292969 C 98.34375 38.902344 100.871094 44.855469 101.089844 51.320312 L 102.726562 98.441406 C 110.066406 89.402344 119.457031 82.6875 129.820312 78.550781 L 123.917969 28.855469 C 122.6875 18.210938 109.148438 14.671875 100.832031 19.417969 C 96.601562 21.832031 93.578125 26.6875 93.980469 34.292969 Z M 93.039062 114.5 C 92.503906 113.695312 92.1875 112.734375 92.164062 111.707031 L 90.082031 51.660156 C 89.632812 38.613281 73.523438 32.148438 64.328125 41.949219 C 61.707031 44.746094 60.144531 48.527344 60.277344 52.597656 L 63.03125 139.585938 C 68.847656 141.378906 74.421875 146.339844 80.910156 155.207031 C 88.691406 165.828125 98.226562 182.65625 112.101562 207.496094 C 116.394531 205.128906 121.164062 203.152344 125.953125 201.726562 C 99.664062 179.742188 78.476562 148.550781 93.039062 114.5 Z M 140.539062 75.28125 C 149.464844 73.355469 158.773438 73.246094 167.878906 75.0625 L 166.113281 63.070312 L 161.882812 42.753906 C 159.980469 33.648438 149.199219 28.390625 142.953125 33.15625 C 139.757812 35.574219 137.453125 40.609375 137.359375 49.0625 Z M 179.5625 78.527344 L 186.390625 81.707031 C 190.925781 74.546875 196.632812 68.488281 203.144531 63.671875 C 200.058594 54.523438 192.046875 42.148438 183.996094 48.707031 C 181.046875 51.097656 178.582031 55.644531 177.171875 62.355469 Z M 293.101562 96.734375 C 289.5 84.761719 281.933594 74.628906 269.027344 67.894531 C 255.222656 60.664062 239.894531 59.796875 226.199219 64.113281 C 212.394531 68.503906 200.136719 78.390625 193.335938 91.613281 C 191.789062 94.699219 188.125 95.660156 185.371094 93.871094 C 157.738281 75.929688 120.46875 85.410156 105.054688 114.808594 C 97.554688 129.105469 97.957031 143.136719 103.417969 156.246094 C 109.980469 172.015625 123.785156 186.609375 140.175781 198.929688 C 140.445312 198.996094 155.101562 196.785156 172.640625 202.734375 C 188.054688 207.945312 202.617188 218.222656 213.675781 234.210938 C 217.96875 235.175781 221.929688 235.800781 225.378906 236.027344 C 228.914062 236.273438 231.804688 236.089844 233.878906 235.46875 C 242.355469 232.917969 254.890625 219.738281 266.550781 201.527344 C 266.730469 201.171875 266.953125 200.808594 267.195312 200.503906 C 270.21875 195.710938 273.171875 190.613281 275.988281 185.269531 C 289.160156 160.121094 301.339844 124.125 293.101562 96.734375 Z M 293.101562 96.734375 " fill-opacity="1" fill-rule="nonzero"/></svg>