<svg xmlns="http://www.w3.org/2000/svg" xmlns:xlink="http://www.w3.org/1999/xlink" width="500" zoomAndPan="magnify" viewBox="0 0 375 374.999991" height="500" preserveAspectRatio="xMidYMid meet" version="1.0"><defs><clipPath id="0aff69c670"><path d="M 97 261 L 214 261 L 214 325.6875 L 97 325.6875 Z M 97 261 " clip-rule="nonzero"/></clipPath><clipPath id="4e7d84435e"><path d="M 98 49.6875 L 374 49.6875 L 374 226 L 98 226 Z M 98 49.6875 " clip-rule="nonzero"/></clipPath></defs><path fill="#343b8c" d="M 201.738281 100.460938 C 195.246094 100.460938 189.976562 105.734375 189.976562 112.222656 L 189.976562 187.5 C 189.976562 191.867188 192.375 195.878906 196.269531 197.921875 L 235.363281 218.53125 C 237.132812 219.4375 238.984375 219.867188 240.832031 219.867188 C 245.039062 219.867188 249.128906 217.585938 251.253906 213.574219 C 254.28125 207.832031 252.078125 200.714844 246.335938 197.6875 L 213.535156 180.382812 L 213.535156 112.222656 C 213.496094 105.734375 208.226562 100.460938 201.738281 100.460938 Z M 201.738281 100.460938 " fill-opacity="1" fill-rule="nonzero"/><g clip-path="url(#0aff69c670)"><path fill="#343b8c" d="M 213.535156 313.511719 C 213.535156 320.003906 208.226562 325.3125 201.738281 325.3125 C 160.363281 325.3125 123.234375 307.023438 97.90625 277.960938 C 105.652344 275.285156 111.828125 269.148438 114.503906 261.242188 C 135.585938 286.023438 166.851562 301.675781 201.738281 301.675781 C 208.1875 301.714844 213.535156 307.023438 213.535156 313.511719 Z M 213.535156 313.511719 " fill-opacity="1" fill-rule="nonzero"/></g><g clip-path="url(#4e7d84435e)"><path fill="#343b8c" d="M 370.226562 188.207031 L 336.089844 222.347656 C 333.769531 224.707031 330.78125 225.847656 327.789062 225.847656 C 324.722656 225.847656 321.734375 224.667969 319.492188 222.347656 L 285.234375 188.207031 C 280.671875 183.644531 280.671875 176.171875 285.234375 171.609375 C 289.914062 166.929688 297.347656 166.929688 301.949219 171.609375 L 315.875 185.535156 C 314.8125 123.390625 264.074219 73.207031 201.738281 73.207031 C 166.851562 73.207031 135.585938 88.9375 114.503906 113.636719 C 111.828125 105.890625 105.773438 99.714844 98.023438 96.921875 C 123.351562 67.976562 160.480469 49.6875 201.738281 49.6875 C 277.171875 49.6875 338.527344 110.53125 339.511719 185.730469 L 353.667969 171.570312 C 358.230469 166.890625 365.703125 166.890625 370.265625 171.570312 C 374.90625 176.171875 374.90625 183.605469 370.226562 188.207031 Z M 370.226562 188.207031 " fill-opacity="1" fill-rule="nonzero"/></g><path fill="#343b8c" d="M 238.628906 294.675781 C 232.023438 296.957031 228.480469 304.152344 230.761719 310.800781 C 233.042969 317.40625 240.242188 320.945312 246.886719 318.664062 C 253.496094 316.382812 257.035156 309.1875 254.753906 302.539062 C 252.472656 295.894531 245.238281 292.394531 238.628906 294.675781 Z M 238.628906 294.675781 " fill-opacity="1" fill-rule="nonzero"/><path fill="#343b8c" d="M 273.042969 275.558594 C 267.617188 279.964844 266.75 287.949219 271.15625 293.375 C 275.558594 298.804688 283.542969 299.667969 288.972656 295.265625 C 294.398438 290.859375 295.265625 282.875 290.859375 277.449219 C 286.492188 272.019531 278.507812 271.15625 273.042969 275.558594 Z M 273.042969 275.558594 " fill-opacity="1" fill-rule="nonzero"/><path fill="#343b8c" d="M 316.265625 241.539062 C 310.25 237.921875 302.460938 239.886719 298.882812 245.867188 C 295.265625 251.882812 297.230469 259.671875 303.210938 263.25 C 309.226562 266.867188 317.015625 264.902344 320.59375 258.921875 C 324.210938 252.90625 322.285156 245.117188 316.265625 241.539062 Z M 316.265625 241.539062 " fill-opacity="1" fill-rule="nonzero"/><path fill="#343b8c" d="M 141.601562 205.828125 C 141.601562 208.777344 139.203125 211.175781 136.292969 211.175781 L 94.523438 211.175781 L 94.523438 252.90625 C 94.523438 255.855469 92.125 258.214844 89.214844 258.214844 L 52.480469 258.214844 C 49.53125 258.214844 47.171875 255.816406 47.171875 252.90625 L 47.171875 211.175781 L 5.402344 211.175781 C 2.453125 211.175781 0.09375 208.777344 0.09375 205.828125 L 0.09375 169.09375 C 0.09375 166.144531 2.453125 163.785156 5.402344 163.785156 L 47.132812 163.785156 L 47.132812 122.054688 C 47.132812 119.105469 49.53125 116.746094 52.441406 116.746094 L 89.175781 116.746094 C 92.125 116.746094 94.484375 119.144531 94.484375 122.054688 L 94.484375 163.824219 L 136.214844 163.824219 C 139.164062 163.824219 141.523438 166.222656 141.523438 169.132812 L 141.523438 205.828125 Z M 141.601562 205.828125 " fill-opacity="1" fill-rule="nonzero"/></svg>